<svg xmlns="http://www.w3.org/2000/svg" viewBox="0 0 64 64" fill="none">
  
  <circle cx="32" cy="32" r="30" fill="#1e293b"></circle>

  
  <path d="M16 44 L48 44 L46 48 L18 48 Z" fill="#f97316"></path>
  <path d="M20 40 L44 40 L46 44 L18 44 Z" fill="#fb923c"></path>

  
  <path d="M22 32 L42 32 L44 40 L20 40 Z" fill="#64748b"></path>
  <path d="M24 28 L40 28 L42 32 L22 32 Z" fill="#94a3b8"></path>

  
  <circle cx="12" cy="20" r="3" fill="#3b82f6"></circle>
  <circle cx="12" cy="28" r="3" fill="#3b82f6"></circle>
  <circle cx="12" cy="36" r="3" fill="#3b82f6"></circle>

  
  <path d="M15 20 L22 24 M15 28 L22 28 M15 36 L22 32" stroke="#60a5fa" stroke-width="2" stroke-linecap="round"></path>

  
  <path d="M32 16 L32 26" stroke="#f97316" stroke-width="3" stroke-linecap="round"></path>
  <path d="M28 18 L36 18 L34 14 L30 14 Z" fill="#f97316"></path>

  
  <circle cx="28" cy="28" r="2" fill="#fbbf24"></circle>
  <circle cx="36" cy="28" r="2" fill="#fbbf24"></circle>
  <circle cx="32" cy="26" r="1.5" fill="#fef3c7"></circle>

  
  <circle cx="52" cy="20" r="3" fill="#22c55e"></circle>
  <circle cx="52" cy="28" r="3" fill="#22c55e"></circle>
  <circle cx="52" cy="36" r="3" fill="#22c55e"></circle>

  
  <path d="M42 24 L49 20 M42 28 L49 28 M42 32 L49 36" stroke="#4ade80" stroke-width="2" stroke-linecap="round"></path>
</svg>